<svg xmlns="http://www.w3.org/2000/svg" xmlns:xlink="http://www.w3.org/1999/xlink" width="250" height="250" preserveAspectRatio="xMidYMid meet" version="1.0" viewBox="0 0 187.5 187.5" zoomAndPan="magnify"><defs><clipPath id="id1"><path d="M 14.378906 6 L 173 6 L 173 182.054688 L 14.378906 182.054688 Z M 14.378906 6" clip-rule="nonzero"/></clipPath></defs><g clip-path="url(#id1)"><path fill="#002ead" fill-opacity="1" fill-rule="nonzero" d="M 122.113281 129.375 L 123.398438 158.21875 L 60.257812 134.15625 L 65.566406 104.324219 L 94.007812 109.863281 Z M 126.386719 170.253906 C 126.386719 173.996094 123.34375 177.042969 119.601562 177.042969 C 115.859375 177.042969 112.8125 173.996094 112.8125 170.253906 C 112.8125 166.507812 115.859375 163.460938 119.601562 163.460938 C 123.34375 163.460938 126.386719 166.507812 126.386719 170.253906 Z M 39.167969 145.464844 C 35.421875 145.464844 32.378906 142.417969 32.378906 138.671875 C 32.378906 134.929688 35.421875 131.882812 39.167969 131.882812 C 39.671875 131.882812 40.164062 131.941406 40.636719 132.050781 L 42.46875 132.746094 C 44.542969 133.910156 45.953125 136.128906 45.953125 138.671875 C 45.953125 142.417969 42.910156 145.464844 39.167969 145.464844 Z M 172.707031 119.515625 L 168.09375 89.707031 C 167.105469 83.316406 163.683594 77.550781 158.546875 73.625 L 130.003906 51.808594 C 129.269531 51.246094 128.476562 50.761719 127.640625 50.363281 L 84.683594 30.78125 L 73.140625 10.636719 C 71.152344 7.164062 66.828125 5.8125 63.214844 7.53125 L 63.082031 7.597656 C 59.257812 9.417969 57.640625 14 59.476562 17.820312 L 68.617188 36.859375 C 70.730469 41.261719 74.105469 44.933594 78.308594 47.410156 L 96.636719 58.203125 L 87.085938 88.296875 L 60.507812 87.207031 C 56.234375 87.035156 52.519531 90.125 51.914062 94.363281 L 46.945312 129.082031 L 44.542969 128.167969 C 43.773438 127.769531 42.949219 127.453125 42.09375 127.230469 L 30.464844 122.800781 C 27.742188 121.761719 25.558594 119.613281 24.472656 116.90625 L 19.535156 104.550781 C 19.015625 103.261719 17.546875 102.636719 16.273438 103.152344 C 14.988281 103.664062 14.363281 105.125 14.875 106.414062 L 19.816406 118.773438 C 21.417969 122.777344 24.648438 125.953125 28.675781 127.488281 L 32.488281 128.941406 C 29.394531 131.074219 27.363281 134.640625 27.363281 138.671875 C 27.363281 145.1875 32.65625 150.484375 39.167969 150.484375 C 45.675781 150.484375 50.972656 145.1875 50.972656 138.671875 C 50.972656 137.703125 50.851562 136.757812 50.628906 135.855469 L 113.839844 159.949219 C 110.238281 161.972656 107.792969 165.832031 107.792969 170.253906 C 107.792969 176.765625 113.089844 182.0625 119.601562 182.0625 C 126.109375 182.0625 131.40625 176.765625 131.40625 170.253906 C 131.40625 168.902344 131.175781 167.601562 130.753906 166.394531 L 151.265625 174.210938 C 151.5625 174.324219 151.863281 174.378906 152.160156 174.378906 C 153.171875 174.378906 154.125 173.761719 154.503906 172.761719 C 155 171.464844 154.347656 170.015625 153.054688 169.523438 L 139.523438 164.363281 L 140.730469 131.636719 C 140.867188 127.894531 139.578125 124.238281 137.128906 121.40625 L 117.21875 98.425781 L 126.835938 74.097656 L 152.160156 88.296875 L 158.417969 121.933594 C 159.0625 125.390625 162.117188 127.871094 165.628906 127.792969 L 165.773438 127.792969 C 170.109375 127.695312 173.371094 123.804688 172.707031 119.515625"/></g><path fill="#002ead" fill-opacity="1" fill-rule="nonzero" d="M 127.1875 45.386719 C 136.816406 45.386719 144.625 37.574219 144.625 27.9375 C 144.625 18.300781 136.816406 10.488281 127.1875 10.488281 C 117.550781 10.488281 109.742188 18.300781 109.742188 27.9375 C 109.742188 37.574219 117.550781 45.386719 127.1875 45.386719"/></svg>