<svg xmlns="http://www.w3.org/2000/svg" xmlns:xlink="http://www.w3.org/1999/xlink" width="860" zoomAndPan="magnify" viewBox="0 0 645 111.749996" height="149" preserveAspectRatio="xMidYMid meet" version="1.0"><defs><g/><clipPath id="id1"><path d="M 12 11.148438 L 91 11.148438 L 91 98.703125 L 12 98.703125 Z M 12 11.148438 " clip-rule="nonzero"/></clipPath></defs><g fill="#002ead" fill-opacity="1"><g transform="translate(105.54401, 85.952749)"><g><path d="M 36.328125 -46.171875 C 36.015625 -45.617188 35.679688 -45.21875 35.328125 -44.96875 C 34.984375 -44.726562 34.550781 -44.609375 34.03125 -44.609375 C 33.476562 -44.609375 32.882812 -44.804688 32.25 -45.203125 C 31.613281 -45.609375 30.851562 -46.054688 29.96875 -46.546875 C 29.082031 -47.046875 28.046875 -47.492188 26.859375 -47.890625 C 25.679688 -48.296875 24.285156 -48.5 22.671875 -48.5 C 21.210938 -48.5 19.9375 -48.320312 18.84375 -47.96875 C 17.75 -47.625 16.832031 -47.140625 16.09375 -46.515625 C 15.351562 -45.890625 14.800781 -45.140625 14.4375 -44.265625 C 14.070312 -43.398438 13.890625 -42.445312 13.890625 -41.40625 C 13.890625 -40.070312 14.257812 -38.960938 15 -38.078125 C 15.738281 -37.203125 16.71875 -36.453125 17.9375 -35.828125 C 19.164062 -35.203125 20.5625 -34.640625 22.125 -34.140625 C 23.6875 -33.648438 25.285156 -33.125 26.921875 -32.5625 C 28.566406 -32 30.164062 -31.347656 31.71875 -30.609375 C 33.28125 -29.867188 34.671875 -28.929688 35.890625 -27.796875 C 37.117188 -26.671875 38.101562 -25.285156 38.84375 -23.640625 C 39.582031 -22.003906 39.953125 -20.015625 39.953125 -17.671875 C 39.953125 -15.128906 39.515625 -12.742188 38.640625 -10.515625 C 37.773438 -8.296875 36.503906 -6.359375 34.828125 -4.703125 C 33.148438 -3.046875 31.097656 -1.742188 28.671875 -0.796875 C 26.253906 0.148438 23.488281 0.625 20.375 0.625 C 18.570312 0.625 16.800781 0.445312 15.0625 0.09375 C 13.320312 -0.25 11.648438 -0.742188 10.046875 -1.390625 C 8.453125 -2.046875 6.953125 -2.828125 5.546875 -3.734375 C 4.140625 -4.648438 2.890625 -5.671875 1.796875 -6.796875 L 4.875 -11.828125 C 5.132812 -12.191406 5.472656 -12.492188 5.890625 -12.734375 C 6.304688 -12.984375 6.75 -13.109375 7.21875 -13.109375 C 7.863281 -13.109375 8.5625 -12.84375 9.3125 -12.3125 C 10.070312 -11.78125 10.972656 -11.1875 12.015625 -10.53125 C 13.054688 -9.882812 14.269531 -9.289062 15.65625 -8.75 C 17.050781 -8.21875 18.726562 -7.953125 20.6875 -7.953125 C 23.675781 -7.953125 25.988281 -8.660156 27.625 -10.078125 C 29.269531 -11.503906 30.09375 -13.539062 30.09375 -16.1875 C 30.09375 -17.675781 29.71875 -18.890625 28.96875 -19.828125 C 28.226562 -20.765625 27.242188 -21.550781 26.015625 -22.1875 C 24.796875 -22.820312 23.40625 -23.359375 21.84375 -23.796875 C 20.289062 -24.242188 18.707031 -24.726562 17.09375 -25.25 C 15.476562 -25.769531 13.890625 -26.394531 12.328125 -27.125 C 10.765625 -27.851562 9.375 -28.800781 8.15625 -29.96875 C 6.9375 -31.132812 5.953125 -32.597656 5.203125 -34.359375 C 4.460938 -36.117188 4.09375 -38.285156 4.09375 -40.859375 C 4.09375 -42.910156 4.503906 -44.910156 5.328125 -46.859375 C 6.148438 -48.816406 7.335938 -50.550781 8.890625 -52.0625 C 10.453125 -53.570312 12.378906 -54.78125 14.671875 -55.6875 C 16.960938 -56.59375 19.59375 -57.046875 22.5625 -57.046875 C 25.882812 -57.046875 28.953125 -56.523438 31.765625 -55.484375 C 34.578125 -54.453125 36.972656 -53 38.953125 -51.125 Z M 36.328125 -46.171875 "/></g></g></g><g fill="#002ead" fill-opacity="1"><g transform="translate(148.349479, 85.952749)"><g><path d="M 33.4375 -31.5625 C 33.15625 -31.207031 32.875 -30.925781 32.59375 -30.71875 C 32.320312 -30.507812 31.925781 -30.40625 31.40625 -30.40625 C 30.914062 -30.40625 30.4375 -30.550781 29.96875 -30.84375 C 29.5 -31.144531 28.9375 -31.484375 28.28125 -31.859375 C 27.632812 -32.234375 26.863281 -32.570312 25.96875 -32.875 C 25.070312 -33.175781 23.960938 -33.328125 22.640625 -33.328125 C 20.941406 -33.328125 19.453125 -33.019531 18.171875 -32.40625 C 16.898438 -31.789062 15.84375 -30.910156 15 -29.765625 C 14.15625 -28.628906 13.523438 -27.25 13.109375 -25.625 C 12.691406 -24 12.484375 -22.15625 12.484375 -20.09375 C 12.484375 -17.957031 12.710938 -16.054688 13.171875 -14.390625 C 13.628906 -12.734375 14.285156 -11.335938 15.140625 -10.203125 C 15.992188 -9.066406 17.03125 -8.207031 18.25 -7.625 C 19.476562 -7.039062 20.863281 -6.75 22.40625 -6.75 C 23.9375 -6.75 25.175781 -6.9375 26.125 -7.3125 C 27.070312 -7.6875 27.867188 -8.101562 28.515625 -8.5625 C 29.171875 -9.019531 29.738281 -9.4375 30.21875 -9.8125 C 30.707031 -10.1875 31.25 -10.375 31.84375 -10.375 C 32.625 -10.375 33.207031 -10.078125 33.59375 -9.484375 L 36.375 -5.96875 C 35.300781 -4.71875 34.140625 -3.671875 32.890625 -2.828125 C 31.648438 -1.984375 30.359375 -1.304688 29.015625 -0.796875 C 27.671875 -0.285156 26.289062 0.0664062 24.875 0.265625 C 23.457031 0.472656 22.046875 0.578125 20.640625 0.578125 C 18.171875 0.578125 15.84375 0.117188 13.65625 -0.796875 C 11.46875 -1.722656 9.554688 -3.070312 7.921875 -4.84375 C 6.285156 -6.613281 4.988281 -8.78125 4.03125 -11.34375 C 3.082031 -13.90625 2.609375 -16.820312 2.609375 -20.09375 C 2.609375 -23.03125 3.03125 -25.753906 3.875 -28.265625 C 4.726562 -30.773438 5.972656 -32.945312 7.609375 -34.78125 C 9.242188 -36.625 11.269531 -38.0625 13.6875 -39.09375 C 16.113281 -40.132812 18.898438 -40.65625 22.046875 -40.65625 C 25.035156 -40.65625 27.65625 -40.175781 29.90625 -39.21875 C 32.15625 -38.257812 34.179688 -36.878906 35.984375 -35.078125 Z M 33.4375 -31.5625 "/></g></g></g><g fill="#002ead" fill-opacity="1"><g transform="translate(185.965227, 85.952749)"><g><path d="M 13.859375 -33.09375 C 15.097656 -35.488281 16.578125 -37.367188 18.296875 -38.734375 C 20.015625 -40.097656 22.046875 -40.78125 24.390625 -40.78125 C 26.234375 -40.78125 27.71875 -40.375 28.84375 -39.5625 L 28.21875 -32.34375 C 28.082031 -31.875 27.890625 -31.539062 27.640625 -31.34375 C 27.398438 -31.15625 27.070312 -31.0625 26.65625 -31.0625 C 26.257812 -31.0625 25.675781 -31.125 24.90625 -31.25 C 24.144531 -31.382812 23.398438 -31.453125 22.671875 -31.453125 C 21.609375 -31.453125 20.660156 -31.296875 19.828125 -30.984375 C 18.992188 -30.671875 18.242188 -30.222656 17.578125 -29.640625 C 16.910156 -29.054688 16.320312 -28.347656 15.8125 -27.515625 C 15.3125 -26.679688 14.84375 -25.726562 14.40625 -24.65625 L 14.40625 0 L 4.765625 0 L 4.765625 -40.03125 L 10.421875 -40.03125 C 11.410156 -40.03125 12.097656 -39.851562 12.484375 -39.5 C 12.878906 -39.15625 13.140625 -38.53125 13.265625 -37.625 Z M 13.859375 -33.09375 "/></g></g></g><g fill="#002ead" fill-opacity="1"><g transform="translate(215.074507, 85.952749)"><g><path d="M 25.90625 -17.09375 C 23.125 -16.957031 20.78125 -16.710938 18.875 -16.359375 C 16.976562 -16.015625 15.457031 -15.566406 14.3125 -15.015625 C 13.175781 -14.472656 12.359375 -13.835938 11.859375 -13.109375 C 11.367188 -12.378906 11.125 -11.585938 11.125 -10.734375 C 11.125 -9.035156 11.625 -7.820312 12.625 -7.09375 C 13.625 -6.375 14.929688 -6.015625 16.546875 -6.015625 C 18.523438 -6.015625 20.234375 -6.367188 21.671875 -7.078125 C 23.117188 -7.796875 24.53125 -8.882812 25.90625 -10.34375 Z M 3.828125 -34.453125 C 8.429688 -38.671875 13.972656 -40.78125 20.453125 -40.78125 C 22.785156 -40.78125 24.875 -40.394531 26.71875 -39.625 C 28.570312 -38.863281 30.132812 -37.796875 31.40625 -36.421875 C 32.6875 -35.054688 33.65625 -33.425781 34.3125 -31.53125 C 34.976562 -29.632812 35.3125 -27.550781 35.3125 -25.28125 L 35.3125 0 L 30.953125 0 C 30.035156 0 29.328125 -0.132812 28.828125 -0.40625 C 28.335938 -0.675781 27.953125 -1.226562 27.671875 -2.0625 L 26.8125 -4.953125 C 25.789062 -4.046875 24.800781 -3.242188 23.84375 -2.546875 C 22.882812 -1.859375 21.882812 -1.28125 20.84375 -0.8125 C 19.800781 -0.34375 18.6875 0.0078125 17.5 0.25 C 16.3125 0.5 15.003906 0.625 13.578125 0.625 C 11.890625 0.625 10.328125 0.398438 8.890625 -0.046875 C 7.460938 -0.503906 6.226562 -1.1875 5.1875 -2.09375 C 4.144531 -3.007812 3.335938 -4.144531 2.765625 -5.5 C 2.191406 -6.851562 1.90625 -8.425781 1.90625 -10.21875 C 1.90625 -11.238281 2.070312 -12.25 2.40625 -13.25 C 2.75 -14.25 3.304688 -15.203125 4.078125 -16.109375 C 4.847656 -17.023438 5.84375 -17.882812 7.0625 -18.6875 C 8.28125 -19.5 9.78125 -20.203125 11.5625 -20.796875 C 13.351562 -21.398438 15.429688 -21.890625 17.796875 -22.265625 C 20.160156 -22.640625 22.863281 -22.867188 25.90625 -22.953125 L 25.90625 -25.28125 C 25.90625 -27.96875 25.332031 -29.953125 24.1875 -31.234375 C 23.050781 -32.523438 21.398438 -33.171875 19.234375 -33.171875 C 17.671875 -33.171875 16.375 -32.988281 15.34375 -32.625 C 14.320312 -32.257812 13.421875 -31.847656 12.640625 -31.390625 C 11.859375 -30.941406 11.148438 -30.535156 10.515625 -30.171875 C 9.878906 -29.804688 9.171875 -29.625 8.390625 -29.625 C 7.710938 -29.625 7.140625 -29.796875 6.671875 -30.140625 C 6.203125 -30.492188 5.828125 -30.90625 5.546875 -31.375 Z M 3.828125 -34.453125 "/></g></g></g><g fill="#002ead" fill-opacity="1"><g transform="translate(254.680298, 85.952749)"><g><path d="M 14.40625 -10.375 C 15.488281 -9.050781 16.675781 -8.113281 17.96875 -7.5625 C 19.257812 -7.019531 20.660156 -6.75 22.171875 -6.75 C 23.617188 -6.75 24.925781 -7.019531 26.09375 -7.5625 C 27.269531 -8.113281 28.269531 -8.945312 29.09375 -10.0625 C 29.914062 -11.1875 30.546875 -12.597656 30.984375 -14.296875 C 31.421875 -16.003906 31.640625 -18.015625 31.640625 -20.328125 C 31.640625 -22.671875 31.453125 -24.65625 31.078125 -26.28125 C 30.703125 -27.90625 30.160156 -29.222656 29.453125 -30.234375 C 28.753906 -31.253906 27.90625 -32 26.90625 -32.46875 C 25.90625 -32.9375 24.765625 -33.171875 23.484375 -33.171875 C 21.484375 -33.171875 19.78125 -32.75 18.375 -31.90625 C 16.96875 -31.0625 15.644531 -29.867188 14.40625 -28.328125 Z M 13.890625 -34.578125 C 15.523438 -36.421875 17.382812 -37.914062 19.46875 -39.0625 C 21.550781 -40.207031 24 -40.78125 26.8125 -40.78125 C 29 -40.78125 30.992188 -40.320312 32.796875 -39.40625 C 34.609375 -38.5 36.171875 -37.179688 37.484375 -35.453125 C 38.796875 -33.722656 39.804688 -31.585938 40.515625 -29.046875 C 41.234375 -26.515625 41.59375 -23.609375 41.59375 -20.328125 C 41.59375 -17.335938 41.1875 -14.566406 40.375 -12.015625 C 39.570312 -9.460938 38.421875 -7.25 36.921875 -5.375 C 35.429688 -3.507812 33.625 -2.050781 31.5 -1 C 29.382812 0.0507812 27.015625 0.578125 24.390625 0.578125 C 22.148438 0.578125 20.234375 0.234375 18.640625 -0.453125 C 17.054688 -1.140625 15.644531 -2.09375 14.40625 -3.3125 L 14.40625 13.078125 L 4.765625 13.078125 L 4.765625 -40.03125 L 10.65625 -40.03125 C 11.90625 -40.03125 12.722656 -39.445312 13.109375 -38.28125 Z M 13.890625 -34.578125 "/></g></g></g><g fill="#002ead" fill-opacity="1"><g transform="translate(299.00757, 85.952749)"><g><path d="M 30.5625 -24.625 C 30.5625 -25.875 30.382812 -27.050781 30.03125 -28.15625 C 29.675781 -29.257812 29.144531 -30.226562 28.4375 -31.0625 C 27.738281 -31.894531 26.847656 -32.550781 25.765625 -33.03125 C 24.691406 -33.507812 23.441406 -33.75 22.015625 -33.75 C 19.222656 -33.75 17.023438 -32.957031 15.421875 -31.375 C 13.828125 -29.789062 12.8125 -27.539062 12.375 -24.625 Z M 12.171875 -18.8125 C 12.328125 -16.75 12.691406 -14.96875 13.265625 -13.46875 C 13.835938 -11.976562 14.59375 -10.742188 15.53125 -9.765625 C 16.46875 -8.796875 17.578125 -8.070312 18.859375 -7.59375 C 20.148438 -7.113281 21.578125 -6.875 23.140625 -6.875 C 24.703125 -6.875 26.046875 -7.050781 27.171875 -7.40625 C 28.304688 -7.769531 29.296875 -8.171875 30.140625 -8.609375 C 30.984375 -9.054688 31.722656 -9.460938 32.359375 -9.828125 C 33.003906 -10.191406 33.625 -10.375 34.21875 -10.375 C 35.03125 -10.375 35.628906 -10.078125 36.015625 -9.484375 L 38.796875 -5.96875 C 37.722656 -4.71875 36.519531 -3.671875 35.1875 -2.828125 C 33.863281 -1.984375 32.476562 -1.304688 31.03125 -0.796875 C 29.59375 -0.285156 28.125 0.0664062 26.625 0.265625 C 25.132812 0.472656 23.6875 0.578125 22.28125 0.578125 C 19.5 0.578125 16.910156 0.117188 14.515625 -0.796875 C 12.117188 -1.722656 10.035156 -3.085938 8.265625 -4.890625 C 6.503906 -6.703125 5.113281 -8.941406 4.09375 -11.609375 C 3.082031 -14.273438 2.578125 -17.363281 2.578125 -20.875 C 2.578125 -23.601562 3.019531 -26.171875 3.90625 -28.578125 C 4.789062 -30.984375 6.054688 -33.078125 7.703125 -34.859375 C 9.359375 -36.648438 11.375 -38.0625 13.75 -39.09375 C 16.132812 -40.132812 18.820312 -40.65625 21.8125 -40.65625 C 24.332031 -40.65625 26.660156 -40.253906 28.796875 -39.453125 C 30.929688 -38.648438 32.765625 -37.472656 34.296875 -35.921875 C 35.835938 -34.367188 37.039062 -32.46875 37.90625 -30.21875 C 38.78125 -27.96875 39.21875 -25.398438 39.21875 -22.515625 C 39.21875 -21.054688 39.0625 -20.070312 38.75 -19.5625 C 38.4375 -19.0625 37.835938 -18.8125 36.953125 -18.8125 Z M 12.171875 -18.8125 "/></g></g></g><g fill="#002ead" fill-opacity="1"><g transform="translate(340.681434, 85.952749)"><g><path d="M 24.625 -28.0625 C 26.550781 -28.0625 28.226562 -28.300781 29.65625 -28.78125 C 31.082031 -29.257812 32.269531 -29.945312 33.21875 -30.84375 C 34.175781 -31.738281 34.890625 -32.832031 35.359375 -34.125 C 35.828125 -35.414062 36.0625 -36.851562 36.0625 -38.4375 C 36.0625 -39.945312 35.828125 -41.3125 35.359375 -42.53125 C 34.890625 -43.757812 34.1875 -44.800781 33.25 -45.65625 C 32.3125 -46.507812 31.125 -47.164062 29.6875 -47.625 C 28.257812 -48.082031 26.570312 -48.3125 24.625 -48.3125 L 16.78125 -48.3125 L 16.78125 -28.0625 Z M 24.625 -56.421875 C 28.394531 -56.421875 31.660156 -55.976562 34.421875 -55.09375 C 37.179688 -54.21875 39.457031 -52.984375 41.25 -51.390625 C 43.039062 -49.804688 44.375 -47.90625 45.25 -45.6875 C 46.125 -43.476562 46.5625 -41.0625 46.5625 -38.4375 C 46.5625 -35.707031 46.101562 -33.203125 45.1875 -30.921875 C 44.28125 -28.648438 42.914062 -26.691406 41.09375 -25.046875 C 39.269531 -23.410156 36.984375 -22.132812 34.234375 -21.21875 C 31.492188 -20.3125 28.289062 -19.859375 24.625 -19.859375 L 16.78125 -19.859375 L 16.78125 0 L 6.28125 0 L 6.28125 -56.421875 Z M 24.625 -56.421875 "/></g></g></g><g fill="#002ead" fill-opacity="1"><g transform="translate(388.988806, 85.952749)"><g><path d="M 25.90625 -17.09375 C 23.125 -16.957031 20.78125 -16.710938 18.875 -16.359375 C 16.976562 -16.015625 15.457031 -15.566406 14.3125 -15.015625 C 13.175781 -14.472656 12.359375 -13.835938 11.859375 -13.109375 C 11.367188 -12.378906 11.125 -11.585938 11.125 -10.734375 C 11.125 -9.035156 11.625 -7.820312 12.625 -7.09375 C 13.625 -6.375 14.929688 -6.015625 16.546875 -6.015625 C 18.523438 -6.015625 20.234375 -6.367188 21.671875 -7.078125 C 23.117188 -7.796875 24.53125 -8.882812 25.90625 -10.34375 Z M 3.828125 -34.453125 C 8.429688 -38.671875 13.972656 -40.78125 20.453125 -40.78125 C 22.785156 -40.78125 24.875 -40.394531 26.71875 -39.625 C 28.570312 -38.863281 30.132812 -37.796875 31.40625 -36.421875 C 32.6875 -35.054688 33.65625 -33.425781 34.3125 -31.53125 C 34.976562 -29.632812 35.3125 -27.550781 35.3125 -25.28125 L 35.3125 0 L 30.953125 0 C 30.035156 0 29.328125 -0.132812 28.828125 -0.40625 C 28.335938 -0.675781 27.953125 -1.226562 27.671875 -2.0625 L 26.8125 -4.953125 C 25.789062 -4.046875 24.800781 -3.242188 23.84375 -2.546875 C 22.882812 -1.859375 21.882812 -1.28125 20.84375 -0.8125 C 19.800781 -0.34375 18.6875 0.0078125 17.5 0.25 C 16.3125 0.5 15.003906 0.625 13.578125 0.625 C 11.890625 0.625 10.328125 0.398438 8.890625 -0.046875 C 7.460938 -0.503906 6.226562 -1.1875 5.1875 -2.09375 C 4.144531 -3.007812 3.335938 -4.144531 2.765625 -5.5 C 2.191406 -6.851562 1.90625 -8.425781 1.90625 -10.21875 C 1.90625 -11.238281 2.070312 -12.25 2.40625 -13.25 C 2.75 -14.25 3.304688 -15.203125 4.078125 -16.109375 C 4.847656 -17.023438 5.84375 -17.882812 7.0625 -18.6875 C 8.28125 -19.5 9.78125 -20.203125 11.5625 -20.796875 C 13.351562 -21.398438 15.429688 -21.890625 17.796875 -22.265625 C 20.160156 -22.640625 22.863281 -22.867188 25.90625 -22.953125 L 25.90625 -25.28125 C 25.90625 -27.96875 25.332031 -29.953125 24.1875 -31.234375 C 23.050781 -32.523438 21.398438 -33.171875 19.234375 -33.171875 C 17.671875 -33.171875 16.375 -32.988281 15.34375 -32.625 C 14.320312 -32.257812 13.421875 -31.847656 12.640625 -31.390625 C 11.859375 -30.941406 11.148438 -30.535156 10.515625 -30.171875 C 9.878906 -29.804688 9.171875 -29.625 8.390625 -29.625 C 7.710938 -29.625 7.140625 -29.796875 6.671875 -30.140625 C 6.203125 -30.492188 5.828125 -30.90625 5.546875 -31.375 Z M 3.828125 -34.453125 "/></g></g></g><g fill="#002ead" fill-opacity="1"><g transform="translate(428.594584, 85.952749)"><g><path d="M 13.859375 -33.09375 C 15.097656 -35.488281 16.578125 -37.367188 18.296875 -38.734375 C 20.015625 -40.097656 22.046875 -40.78125 24.390625 -40.78125 C 26.234375 -40.78125 27.71875 -40.375 28.84375 -39.5625 L 28.21875 -32.34375 C 28.082031 -31.875 27.890625 -31.539062 27.640625 -31.34375 C 27.398438 -31.15625 27.070312 -31.0625 26.65625 -31.0625 C 26.257812 -31.0625 25.675781 -31.125 24.90625 -31.25 C 24.144531 -31.382812 23.398438 -31.453125 22.671875 -31.453125 C 21.609375 -31.453125 20.660156 -31.296875 19.828125 -30.984375 C 18.992188 -30.671875 18.242188 -30.222656 17.578125 -29.640625 C 16.910156 -29.054688 16.320312 -28.347656 15.8125 -27.515625 C 15.3125 -26.679688 14.84375 -25.726562 14.40625 -24.65625 L 14.40625 0 L 4.765625 0 L 4.765625 -40.03125 L 10.421875 -40.03125 C 11.410156 -40.03125 12.097656 -39.851562 12.484375 -39.5 C 12.878906 -39.15625 13.140625 -38.53125 13.265625 -37.625 Z M 13.859375 -33.09375 "/></g></g></g><g fill="#002ead" fill-opacity="1"><g transform="translate(457.703864, 85.952749)"><g><path d="M 14.40625 -57.984375 L 14.40625 -24.78125 L 16.1875 -24.78125 C 16.84375 -24.78125 17.359375 -24.863281 17.734375 -25.03125 C 18.109375 -25.195312 18.492188 -25.539062 18.890625 -26.0625 L 28.84375 -38.359375 C 29.257812 -38.898438 29.71875 -39.3125 30.21875 -39.59375 C 30.726562 -39.882812 31.382812 -40.03125 32.1875 -40.03125 L 41.015625 -40.03125 L 28.5625 -25.171875 C 27.675781 -23.992188 26.710938 -23.097656 25.671875 -22.484375 C 26.222656 -22.085938 26.710938 -21.628906 27.140625 -21.109375 C 27.566406 -20.585938 27.976562 -20.03125 28.375 -19.4375 L 41.71875 0 L 33.015625 0 C 32.253906 0 31.601562 -0.117188 31.0625 -0.359375 C 30.519531 -0.609375 30.066406 -1.0625 29.703125 -1.71875 L 19.46875 -16.890625 C 19.101562 -17.492188 18.722656 -17.882812 18.328125 -18.0625 C 17.941406 -18.25 17.359375 -18.34375 16.578125 -18.34375 L 14.40625 -18.34375 L 14.40625 0 L 4.765625 0 L 4.765625 -57.984375 Z M 14.40625 -57.984375 "/></g></g></g><g fill="#002ead" fill-opacity="1"><g transform="translate(499.416768, 85.952749)"><g><path d="M 3.359375 -5.3125 C 3.359375 -6.113281 3.503906 -6.878906 3.796875 -7.609375 C 4.097656 -8.335938 4.507812 -8.960938 5.03125 -9.484375 C 5.550781 -10.003906 6.175781 -10.421875 6.90625 -10.734375 C 7.632812 -11.046875 8.414062 -11.203125 9.25 -11.203125 C 10.082031 -11.203125 10.851562 -11.046875 11.5625 -10.734375 C 12.28125 -10.421875 12.90625 -10.003906 13.4375 -9.484375 C 13.976562 -8.960938 14.40625 -8.335938 14.71875 -7.609375 C 15.03125 -6.878906 15.1875 -6.113281 15.1875 -5.3125 C 15.1875 -4.476562 15.03125 -3.703125 14.71875 -2.984375 C 14.40625 -2.265625 13.976562 -1.644531 13.4375 -1.125 C 12.90625 -0.601562 12.28125 -0.195312 11.5625 0.09375 C 10.851562 0.394531 10.082031 0.546875 9.25 0.546875 C 8.414062 0.546875 7.632812 0.394531 6.90625 0.09375 C 6.175781 -0.195312 5.550781 -0.601562 5.03125 -1.125 C 4.507812 -1.644531 4.097656 -2.265625 3.796875 -2.984375 C 3.503906 -3.703125 3.359375 -4.476562 3.359375 -5.3125 Z M 3.359375 -5.3125 "/></g></g></g><g fill="#002ead" fill-opacity="1"><g transform="translate(517.951495, 85.952749)"><g><path d="M 22.484375 -40.65625 C 25.441406 -40.65625 28.132812 -40.175781 30.5625 -39.21875 C 33 -38.257812 35.082031 -36.894531 36.8125 -35.125 C 38.539062 -33.351562 39.875 -31.191406 40.8125 -28.640625 C 41.75 -26.085938 42.21875 -23.238281 42.21875 -20.09375 C 42.21875 -16.925781 41.75 -14.066406 40.8125 -11.515625 C 39.875 -8.960938 38.539062 -6.785156 36.8125 -4.984375 C 35.082031 -3.191406 33 -1.816406 30.5625 -0.859375 C 28.132812 0.0976562 25.441406 0.578125 22.484375 0.578125 C 19.484375 0.578125 16.757812 0.0976562 14.3125 -0.859375 C 11.875 -1.816406 9.789062 -3.191406 8.0625 -4.984375 C 6.332031 -6.785156 4.988281 -8.960938 4.03125 -11.515625 C 3.082031 -14.066406 2.609375 -16.925781 2.609375 -20.09375 C 2.609375 -23.238281 3.082031 -26.085938 4.03125 -28.640625 C 4.988281 -31.191406 6.332031 -33.351562 8.0625 -35.125 C 9.789062 -36.894531 11.875 -38.257812 14.3125 -39.21875 C 16.757812 -40.175781 19.484375 -40.65625 22.484375 -40.65625 Z M 22.484375 -6.828125 C 25.804688 -6.828125 28.265625 -7.945312 29.859375 -10.1875 C 31.460938 -12.425781 32.265625 -15.703125 32.265625 -20.015625 C 32.265625 -24.335938 31.460938 -27.628906 29.859375 -29.890625 C 28.265625 -32.148438 25.804688 -33.28125 22.484375 -33.28125 C 19.097656 -33.28125 16.59375 -32.140625 14.96875 -29.859375 C 13.34375 -27.585938 12.53125 -24.304688 12.53125 -20.015625 C 12.53125 -15.722656 13.34375 -12.453125 14.96875 -10.203125 C 16.59375 -7.953125 19.097656 -6.828125 22.484375 -6.828125 Z M 22.484375 -6.828125 "/></g></g></g><g fill="#002ead" fill-opacity="1"><g transform="translate(562.786035, 85.952749)"><g><path d="M 13.859375 -33.09375 C 15.097656 -35.488281 16.578125 -37.367188 18.296875 -38.734375 C 20.015625 -40.097656 22.046875 -40.78125 24.390625 -40.78125 C 26.234375 -40.78125 27.71875 -40.375 28.84375 -39.5625 L 28.21875 -32.34375 C 28.082031 -31.875 27.890625 -31.539062 27.640625 -31.34375 C 27.398438 -31.15625 27.070312 -31.0625 26.65625 -31.0625 C 26.257812 -31.0625 25.675781 -31.125 24.90625 -31.25 C 24.144531 -31.382812 23.398438 -31.453125 22.671875 -31.453125 C 21.609375 -31.453125 20.660156 -31.296875 19.828125 -30.984375 C 18.992188 -30.671875 18.242188 -30.222656 17.578125 -29.640625 C 16.910156 -29.054688 16.320312 -28.347656 15.8125 -27.515625 C 15.3125 -26.679688 14.84375 -25.726562 14.40625 -24.65625 L 14.40625 0 L 4.765625 0 L 4.765625 -40.03125 L 10.421875 -40.03125 C 11.410156 -40.03125 12.097656 -39.851562 12.484375 -39.5 C 12.878906 -39.15625 13.140625 -38.53125 13.265625 -37.625 Z M 13.859375 -33.09375 "/></g></g></g><g fill="#002ead" fill-opacity="1"><g transform="translate(591.895314, 85.952749)"><g><path d="M 19.390625 -21 C 20.585938 -21 21.628906 -21.160156 22.515625 -21.484375 C 23.398438 -21.804688 24.132812 -22.253906 24.71875 -22.828125 C 25.300781 -23.398438 25.742188 -24.085938 26.046875 -24.890625 C 26.347656 -25.703125 26.5 -26.585938 26.5 -27.546875 C 26.5 -29.523438 25.90625 -31.09375 24.71875 -32.25 C 23.539062 -33.40625 21.765625 -33.984375 19.390625 -33.984375 C 17.023438 -33.984375 15.25 -33.40625 14.0625 -32.25 C 12.882812 -31.09375 12.296875 -29.523438 12.296875 -27.546875 C 12.296875 -26.609375 12.441406 -25.734375 12.734375 -24.921875 C 13.035156 -24.117188 13.476562 -23.425781 14.0625 -22.84375 C 14.65625 -22.257812 15.398438 -21.804688 16.296875 -21.484375 C 17.191406 -21.160156 18.222656 -21 19.390625 -21 Z M 30.28125 1.796875 C 30.28125 1.015625 30.046875 0.378906 29.578125 -0.109375 C 29.109375 -0.609375 28.46875 -0.992188 27.65625 -1.265625 C 26.851562 -1.535156 25.910156 -1.734375 24.828125 -1.859375 C 23.753906 -1.992188 22.613281 -2.09375 21.40625 -2.15625 C 20.195312 -2.226562 18.945312 -2.289062 17.65625 -2.34375 C 16.363281 -2.394531 15.109375 -2.5 13.890625 -2.65625 C 12.828125 -2.050781 11.960938 -1.347656 11.296875 -0.546875 C 10.628906 0.253906 10.296875 1.191406 10.296875 2.265625 C 10.296875 2.960938 10.472656 3.617188 10.828125 4.234375 C 11.179688 4.847656 11.738281 5.375 12.5 5.8125 C 13.269531 6.257812 14.265625 6.601562 15.484375 6.84375 C 16.710938 7.09375 18.210938 7.21875 19.984375 7.21875 C 21.773438 7.21875 23.320312 7.082031 24.625 6.8125 C 25.925781 6.539062 27 6.160156 27.84375 5.671875 C 28.6875 5.191406 29.300781 4.617188 29.6875 3.953125 C 30.082031 3.296875 30.28125 2.578125 30.28125 1.796875 Z M 39.875 -38.671875 L 39.875 -35.078125 C 39.875 -33.929688 39.1875 -33.226562 37.8125 -32.96875 L 34.21875 -32.3125 C 34.769531 -30.9375 35.046875 -29.425781 35.046875 -27.78125 C 35.046875 -25.800781 34.644531 -24.007812 33.84375 -22.40625 C 33.050781 -20.8125 31.953125 -19.453125 30.546875 -18.328125 C 29.148438 -17.210938 27.492188 -16.347656 25.578125 -15.734375 C 23.671875 -15.128906 21.609375 -14.828125 19.390625 -14.828125 C 18.609375 -14.828125 17.851562 -14.863281 17.125 -14.9375 C 16.394531 -15.019531 15.679688 -15.128906 14.984375 -15.265625 C 13.734375 -14.503906 13.109375 -13.65625 13.109375 -12.71875 C 13.109375 -11.914062 13.476562 -11.320312 14.21875 -10.9375 C 14.96875 -10.5625 15.953125 -10.296875 17.171875 -10.140625 C 18.390625 -9.984375 19.78125 -9.882812 21.34375 -9.84375 C 22.90625 -9.8125 24.503906 -9.726562 26.140625 -9.59375 C 27.785156 -9.46875 29.382812 -9.238281 30.9375 -8.90625 C 32.5 -8.582031 33.890625 -8.070312 35.109375 -7.375 C 36.335938 -6.675781 37.320312 -5.71875 38.0625 -4.5 C 38.800781 -3.289062 39.171875 -1.738281 39.171875 0.15625 C 39.171875 1.925781 38.734375 3.640625 37.859375 5.296875 C 36.992188 6.960938 35.734375 8.445312 34.078125 9.75 C 32.429688 11.050781 30.40625 12.097656 28 12.890625 C 25.59375 13.691406 22.851562 14.09375 19.78125 14.09375 C 16.769531 14.09375 14.144531 13.796875 11.90625 13.203125 C 9.664062 12.617188 7.800781 11.835938 6.3125 10.859375 C 4.832031 9.890625 3.726562 8.765625 3 7.484375 C 2.269531 6.210938 1.90625 4.890625 1.90625 3.515625 C 1.90625 1.640625 2.472656 0.0703125 3.609375 -1.1875 C 4.742188 -2.445312 6.296875 -3.457031 8.265625 -4.21875 C 7.203125 -4.757812 6.359375 -5.484375 5.734375 -6.390625 C 5.109375 -7.304688 4.796875 -8.503906 4.796875 -9.984375 C 4.796875 -10.585938 4.90625 -11.207031 5.125 -11.84375 C 5.351562 -12.476562 5.679688 -13.109375 6.109375 -13.734375 C 6.535156 -14.359375 7.070312 -14.945312 7.71875 -15.5 C 8.375 -16.0625 9.144531 -16.566406 10.03125 -17.015625 C 8 -18.109375 6.40625 -19.5625 5.25 -21.375 C 4.09375 -23.195312 3.515625 -25.332031 3.515625 -27.78125 C 3.515625 -29.757812 3.910156 -31.546875 4.703125 -33.140625 C 5.492188 -34.742188 6.597656 -36.113281 8.015625 -37.25 C 9.429688 -38.382812 11.109375 -39.25 13.046875 -39.84375 C 14.984375 -40.4375 17.097656 -40.734375 19.390625 -40.734375 C 21.109375 -40.734375 22.722656 -40.554688 24.234375 -40.203125 C 25.742188 -39.859375 27.125 -39.347656 28.375 -38.671875 Z M 39.875 -38.671875 "/></g></g></g><g clip-path="url(#id1)"><path fill="#002ead" d="M 65.617188 72.535156 L 66.257812 86.859375 L 34.757812 74.90625 L 37.40625 60.089844 L 51.597656 62.84375 Z M 67.75 92.835938 C 67.75 94.699219 66.230469 96.210938 64.363281 96.210938 C 62.496094 96.210938 60.976562 94.699219 60.976562 92.835938 C 60.976562 90.976562 62.496094 89.464844 64.363281 89.464844 C 66.230469 89.464844 67.75 90.976562 67.75 92.835938 Z M 24.238281 80.527344 C 22.367188 80.527344 20.851562 79.011719 20.851562 77.152344 C 20.851562 75.292969 22.367188 73.78125 24.238281 73.78125 C 24.488281 73.78125 24.734375 73.808594 24.972656 73.863281 L 25.882812 74.207031 C 26.917969 74.785156 27.621094 75.886719 27.621094 77.152344 C 27.621094 79.011719 26.105469 80.527344 24.238281 80.527344 Z M 90.855469 67.636719 L 88.554688 52.832031 C 88.0625 49.65625 86.355469 46.792969 83.792969 44.84375 L 69.554688 34.003906 C 69.1875 33.726562 68.792969 33.484375 68.375 33.289062 L 46.945312 23.5625 L 41.1875 13.554688 C 40.195312 11.832031 38.035156 11.160156 36.234375 12.015625 L 36.167969 12.046875 C 34.261719 12.949219 33.453125 15.226562 34.367188 17.125 L 38.929688 26.582031 C 39.984375 28.765625 41.667969 30.589844 43.765625 31.820312 L 52.90625 37.183594 L 48.144531 52.128906 L 34.882812 51.589844 C 32.75 51.503906 30.898438 53.039062 30.59375 55.144531 L 28.117188 72.386719 L 26.917969 71.933594 C 26.535156 71.734375 26.125 71.578125 25.695312 71.46875 L 19.894531 69.269531 C 18.535156 68.753906 17.445312 67.6875 16.90625 66.339844 L 14.441406 60.203125 C 14.183594 59.5625 13.453125 59.253906 12.816406 59.507812 C 12.175781 59.765625 11.863281 60.488281 12.117188 61.128906 L 14.582031 67.265625 C 15.382812 69.253906 16.992188 70.835938 19.003906 71.597656 L 20.90625 72.320312 C 19.359375 73.378906 18.347656 75.148438 18.347656 77.152344 C 18.347656 80.386719 20.988281 83.019531 24.238281 83.019531 C 27.484375 83.019531 30.125 80.386719 30.125 77.152344 C 30.125 76.671875 30.066406 76.203125 29.953125 75.753906 L 61.492188 87.71875 C 59.691406 88.726562 58.472656 90.640625 58.472656 92.835938 C 58.472656 96.074219 61.117188 98.703125 64.363281 98.703125 C 67.609375 98.703125 70.253906 96.074219 70.253906 92.835938 C 70.253906 92.167969 70.136719 91.523438 69.929688 90.921875 L 80.160156 94.804688 C 80.308594 94.859375 80.457031 94.886719 80.609375 94.886719 C 81.113281 94.886719 81.585938 94.582031 81.777344 94.082031 C 82.023438 93.441406 81.699219 92.71875 81.054688 92.476562 L 74.300781 89.914062 L 74.902344 73.65625 C 74.972656 71.796875 74.332031 69.980469 73.109375 68.578125 L 63.175781 57.160156 L 67.972656 45.078125 L 80.609375 52.128906 L 83.726562 68.835938 C 84.050781 70.554688 85.574219 71.789062 87.328125 71.75 L 87.398438 71.746094 C 89.5625 71.699219 91.1875 69.765625 90.855469 67.636719 " fill-opacity="1" fill-rule="nonzero"/></g><path fill="#002ead" d="M 68.148438 30.816406 C 72.953125 30.816406 76.847656 26.933594 76.847656 22.148438 C 76.847656 17.363281 72.953125 13.484375 68.148438 13.484375 C 63.34375 13.484375 59.445312 17.363281 59.445312 22.148438 C 59.445312 26.933594 63.34375 30.816406 68.148438 30.816406 " fill-opacity="1" fill-rule="nonzero"/></svg>